PathFileType	4	(X/Y/Z)	C:/Users/opensim2020/Desktop/walking_exp_matlab/subject02_walking12_straight_01.trc	
DataRate	CameraRate	NumFrames	NumMarkers	Units	OrigDataRate	OrigDataStartFrame	OrigNumFrames	
100.00	100.00	8	42	mm	100.00	608	178	
Frame#	Time	LFHD			RFHD			LBHD			RBHD			C7			T10			CLAV			STRN			RBAK			LSHO			LUPA			LELB			LFRM			LWRA			LWRB			LFIN			RSHO			RUPA			RELB			RFRM			RWRA			RWRB			RFIN			LASI			RASI			LPSI			RPSI			LTHI			LKNE			LTIB			LANK			LHEE			LTOE			RTHI			RKNE			RTIB			RANK			RHEE			RTOE			*39			*40			*41			
		X1	Y1	Z1	X2	Y2	Z2	X3	Y3	Z3	X4	Y4	Z4	X5	Y5	Z5	X6	Y6	Z6	X7	Y7	Z7	X8	Y8	Z8	X9	Y9	Z9	X10	Y10	Z10	X11	Y11	Z11	X12	Y12	Z12	X13	Y13	Z13	X14	Y14	Z14	X15	Y15	Z15	X16	Y16	Z16	X17	Y17	Z17	X18	Y18	Z18	X19	Y19	Z19	X20	Y20	Z20	X21	Y21	Z21	X22	Y22	Z22	X23	Y23	Z23	X24	Y24	Z24	X25	Y25	Z25	X26	Y26	Z26	X27	Y27	Z27	X28	Y28	Z28	X29	Y29	Z29	X30	Y30	Z30	X31	Y31	Z31	X32	Y32	Z32	X33	Y33	Z33	X34	Y34	Z34	X35	Y35	Z35	X36	Y36	Z36	X37	Y37	Z37	X38	Y38	Z38	X39	Y39	Z39	X40	Y40	Z40	X41	Y41	Z41	X42	Y42	Z42	

112	1.110	-1096.15308	77.33382	1720.21655	-956.66040	48.47375	1694.25500	-1135.65247	-45.99099	1642.69250	-1000.62079	-86.71746	1615.07520	-1070.64075	-112.55162	1499.63684	-1053.85461	-166.74529	1224.63489	-1076.06445	26.30379	1429.71411	-1072.52905	75.67322	1256.84143	-1010.86249	-176.09004	1325.56995	-1244.71582	-31.56093	1479.79407	-1346.67664	18.92968	1301.22034	-1378.01941	84.76731	1176.43042	-1377.86267	192.03316	1094.45142	-1329.59692	317.26218	1061.42200	-1364.57458	292.06845	1024.46289	-1362.33118	355.05127	1004.12164	-881.18787	-44.41788	1459.01855	-804.43896	-106.33822	1277.13855	-782.40436	-113.80145	1131.08862	-761.39081	-101.78622	1011.27716	-778.63367	-69.01496	879.41205	-748.07751	-117.41416	882.22943	-744.13782	-89.11189	815.06030	-1212.34521	34.44966	958.21295	-958.57159	80.10062	950.68542	-1089.28369	-157.48700	1009.41693	-976.51471	-140.91284	1007.81171	-1240.58362	-112.21848	665.06433	-1201.79480	-194.47241	478.74765	-1197.66003	-304.96515	318.35199	-1162.73230	-362.79584	98.07408	-1111.85706	-405.17709	81.75965	-1168.14966	-216.66768	31.21290	-873.90167	73.75304	657.29449	-924.49719	153.88399	467.15268	-920.25409	196.14165	284.78174	-956.07330	269.24756	103.90111	-1016.79614	268.80164	41.58764	-935.19763	427.94110	116.94701	-1026.21277	-43.20053	1777.93567						 
113	1.120	-1095.05054	91.52611	1718.82983	-955.25989	62.61131	1692.89783	-1134.46570	-31.79476	1641.07251	-999.22272	-72.65530	1613.38538	-1068.88586	-98.42296	1498.25098	-1052.26196	-152.77899	1223.19482	-1074.61108	40.31070	1428.08130	-1071.04077	89.71776	1255.27356	-1008.78833	-161.87770	1324.21204	-1243.28125	-17.86412	1477.92798	-1345.60645	31.85615	1299.51526	-1377.29504	97.30452	1174.42322	-1376.97412	205.47720	1093.74866	-1328.36206	331.14001	1062.77356	-1363.18457	306.37177	1025.09937	-1361.19556	369.68976	1005.91754	-879.37848	-29.64118	1457.52075	-802.69122	-91.92110	1275.63379	-781.47638	-100.49124	1129.60083	-760.74707	-89.96242	1009.71057	-778.09265	-58.86396	877.42908	-747.45099	-107.16077	881.03564	-743.74054	-79.92271	813.37897	-1211.99231	48.47562	956.62799	-957.76892	95.21961	949.58063	-1088.04688	-142.85405	1007.40033	-975.45569	-126.56378	1006.05048	-1240.50354	-98.60136	664.24982	-1202.58960	-181.92513	478.89197	-1198.51721	-296.38608	321.01877	-1163.98535	-360.40192	102.27203	-1113.67383	-402.79703	87.72591	-1168.43689	-216.45311	31.20641	-873.12213	93.85095	657.36011	-924.82904	172.50284	467.13641	-921.04028	210.21194	283.32751	-958.29669	278.59998	101.17204	-1019.09906	276.48880	38.90038	-938.31885	437.34650	110.96577	-1025.27209	-29.25239	1776.47058	-3360.41455	2845.22021	1034.27576			 
114	1.130	-1093.72156	105.71033	1717.42395	-953.88654	76.70715	1691.67688	-1133.02234	-17.60601	1639.53516	-997.52905	-58.12820	1612.07764	-1066.90564	-84.31119	1497.20020	-1050.53345	-138.61160	1221.86780	-1072.93823	54.30366	1426.66077	-1069.35657	103.79443	1253.97949	-1006.64978	-147.77821	1322.87195	-1241.67969	-4.03944	1476.25891	-1344.17993	44.36866	1297.71741	-1376.34497	109.37185	1172.33960	-1375.59302	218.32460	1092.65857	-1327.25146	344.18259	1063.36511	-1361.79700	319.86926	1025.21631	-1360.00012	383.36908	1006.99243	-877.43994	-14.91156	1456.37268	-800.68787	-77.59334	1274.20630	-780.49103	-87.17253	1128.26746	-759.90924	-77.78071	1008.25171	-777.50012	-48.19616	875.57867	-746.66534	-96.33954	879.82507	-743.62976	-70.50642	811.64203	-1211.41138	63.11716	955.29254	-956.47021	110.75541	948.95367	-1087.00134	-127.67928	1005.54956	-974.47949	-112.00895	1004.32190	-1240.56885	-84.25848	663.47418	-1203.33655	-168.42717	478.57230	-1199.73560	-286.84000	323.96649	-1165.63123	-357.54245	107.00951	-1115.39954	-399.91785	94.38920	-1168.84998	-216.20241	31.25767	-872.70862	115.04445	657.70691	-924.74695	190.51833	466.89536	-921.78973	222.86823	281.55017	-960.64337	285.86835	97.73572	-1021.86829	281.58148	35.70826	-941.18323	444.34714	104.06686	-1024.03333	-15.02432	1775.13708						 
115	1.140	-1092.18896	119.82790	1715.93298	-952.39264	90.57576	1690.72546	-1131.41919	-3.41543	1638.14124	-996.01294	-44.12863	1611.01807	-1064.83508	-70.28748	1496.02649	-1048.77917	-124.19666	1220.43701	-1071.12732	68.33186	1425.49683	-1067.44177	118.12027	1252.92529	-1004.25195	-134.63853	1322.03625	-1239.88501	9.85810	1474.78699	-1342.16809	56.64883	1295.76208	-1375.14221	120.97174	1170.22449	-1374.26685	230.44136	1091.31177	-1326.35010	356.39972	1063.37317	-1360.25684	332.46249	1024.73596	-1358.75513	396.14957	1007.35083	-875.44354	-0.48654	1455.17761	-798.64954	-62.92530	1273.15051	-779.48938	-73.46489	1127.08582	-759.11462	-65.86082	1006.89160	-776.76367	-36.84778	874.18378	-746.03058	-85.33347	878.77075	-743.09528	-59.91310	810.20184	-1210.50635	78.41876	954.15363	-954.85986	126.85824	948.80060	-1085.80188	-111.95210	1003.85339	-973.50262	-97.14081	1002.63489	-1240.62708	-69.27694	662.87903	-1204.55298	-154.07785	478.48407	-1201.21973	-276.52826	327.12247	-1167.51123	-353.96436	112.76035	-1117.56262	-396.09677	101.56955	-1169.31494	-215.65999	31.43281	-872.54541	137.10431	658.12097	-924.58600	208.32471	465.93140	-922.61523	234.29288	279.15372	-963.10724	291.12143	93.81143	-1024.21851	285.10300	31.97862	-943.95258	449.51028	96.22279	-1022.86542	-0.97324	1773.99854	-3356.88379	2845.91553	1034.15710			 
116	1.150	-1090.64453	134.11128	1714.70020	-951.04529	104.63869	1689.40222	-1129.70447	10.73478	1636.84082	-994.28998	-29.98582	1609.95422	-1062.73547	-56.31091	1494.66785	-1046.81677	-109.57400	1218.91150	-1069.15881	82.40228	1424.48633	-1065.44946	132.71446	1252.12903	-1001.96942	-120.04726	1320.41333	-1237.78271	23.72343	1473.40576	-1340.46375	68.83912	1294.35962	-1373.70239	132.10803	1168.16699	-1372.85449	241.95526	1089.71472	-1325.11169	368.02087	1062.74561	-1358.70752	344.29593	1023.73450	-1357.48950	408.08215	1007.01300	-873.45691	13.74473	1454.13049	-796.60681	-48.57822	1272.06433	-778.20221	-59.35783	1126.12964	-758.01385	-52.39993	1005.90112	-775.82672	-25.03996	872.87177	-744.98871	-73.59952	877.88416	-742.47552	-49.27137	808.82703	-1209.30103	94.53746	953.38495	-952.88593	143.26907	949.09625	-1084.46826	-95.76906	1002.31702	-972.42566	-81.83871	1000.90204	-1240.78406	-53.61671	662.40533	-1206.12524	-138.93173	478.66043	-1202.83911	-265.40155	330.66858	-1169.65979	-349.83823	118.81493	-1119.71484	-391.74448	109.57678	-1169.74512	-215.61795	31.01783	-872.99225	158.80298	658.46509	-924.31952	224.24380	464.46747	-923.28119	244.57825	276.47888	-965.19055	295.37500	89.88526	-1025.45422	286.52548	28.85094	-946.88739	453.50314	87.84000	-1021.25433	13.34864	1772.79700	-3356.97485	2846.01929	1034.27368			 
117	1.160	-1088.89661	148.28552	1713.38184	-949.02466	118.77937	1688.29175	-1127.88660	24.84941	1635.58618	-992.64447	-16.40507	1609.17139	-1060.39429	-42.48782	1493.43420	-1044.63037	-94.80909	1217.31506	-1067.05737	96.49944	1423.57422	-1063.28772	147.47415	1251.50269	-999.89691	-104.33392	1318.09741	-1235.58411	37.52074	1472.24194	-1338.43091	80.81285	1292.89746	-1372.31970	142.91130	1166.23157	-1371.26392	252.78802	1087.82422	-1323.76587	378.94739	1061.41040	-1357.03809	355.30029	1022.06677	-1356.16870	419.16559	1005.82928	-871.30774	28.19537	1453.37097	-794.08435	-33.67200	1271.24890	-777.04553	-45.32463	1124.91919	-757.09741	-39.14981	1004.89398	-775.06714	-13.39113	871.50543	-744.05182	-61.48863	877.07306	-741.91089	-37.85956	807.67914	-1207.61926	111.31436	952.92926	-950.59528	159.96677	949.89618	-1083.00024	-79.32611	1000.83179	-971.29724	-65.95497	999.12897	-1240.90906	-37.41270	661.91949	-1207.85388	-122.96440	478.72501	-1204.32825	-253.74300	334.50781	-1171.67029	-345.07819	125.36469	-1121.73071	-386.53525	118.78870	-1170.30786	-215.17979	31.05597	-872.86975	180.49826	658.69641	-923.91150	238.84344	462.43713	-924.54742	254.39964	273.60480	-967.71155	300.52509	86.89513	-1027.47729	289.40427	29.61327	-949.79242	458.94357	77.80377	-1019.73499	27.61325	1771.87659	-3360.43359	2845.24438	1034.19800			 
118	1.170	-1087.09888	162.64981	1712.49475	-946.98193	133.23569	1687.77930	-1125.87854	39.05320	1634.67090	-990.34088	-1.66834	1608.36523	-1058.01794	-29.00614	1492.35254	-1042.03906	-80.13033	1216.28833	-1064.94421	110.65949	1422.94165	-1061.02869	162.36507	1251.44836	-997.69324	-88.86588	1316.68286	-1233.17432	51.10179	1471.26440	-1336.10791	92.58073	1291.51514	-1370.62451	153.32362	1164.34131	-1369.86145	263.10098	1085.77271	-1322.30701	389.29855	1059.39661	-1355.35852	365.51193	1019.80896	-1354.75525	429.37515	1003.88165	-868.95172	42.55242	1452.87866	-791.71088	-18.88919	1270.48254	-775.58240	-30.84070	1124.15015	-755.85889	-25.56859	1004.18927	-774.04584	-0.97074	870.47290	-742.92511	-48.78297	876.36914	-740.96454	-26.08574	806.73346	-1205.59692	128.71521	952.81873	-948.47522	175.89824	950.53998	-1081.49158	-62.99476	999.55725	-969.98480	-49.67736	997.66803	-1241.07019	-20.65572	661.47693	-1209.76208	-106.16662	478.91574	-1205.51770	-241.40524	338.87805	-1173.61230	-339.60547	132.64241	-1122.86084	-379.41418	128.42859	-1170.99402	-215.06807	31.12506	-871.91516	199.02821	659.82178	-922.76349	252.53317	460.85654	-928.38550	266.10391	271.87885	-966.73865	309.70419	87.96091	-1026.10095	293.93677	33.26397	-949.62317	469.69916	67.14745	-1017.89984	41.80083	1771.10889	-3360.42065	2845.19214	1034.08228			 
119	1.180	-1084.87769	176.95107	1712.30444	-944.66913	147.52483	1687.84375	-1123.93945	53.40589	1634.69128	-988.42761	12.04253	1608.06055	-1055.43542	-15.78128	1491.86206	-1039.67358	-65.17937	1215.98840	-1062.82922	124.65257	1423.04065	-1058.77100	177.00243	1252.15649	-995.64594	-75.18308	1316.55493	-1231.08606	64.38056	1470.70178	-1333.73621	104.30968	1290.27429	-1368.65344	163.41783	1162.54565	-1367.96765	272.89899	1083.31104	-1320.38831	399.01822	1056.53882	-1353.67651	374.99838	1017.12927	-1353.38660	438.82928	1001.21777	-866.54669	56.58532	1452.52722	-789.28674	-3.90162	1269.90356	-774.03552	-16.01120	1123.52649	-754.46570	-11.72574	1003.48004	-773.05652	12.46682	869.49756	-741.77985	-35.66432	875.81738	-740.28015	-13.90754	805.63507	-1203.02148	146.29369	952.82037	-946.34308	191.30861	951.08514	-1080.04431	-46.64180	998.89844	-968.46338	-33.06565	997.20636	-1241.26538	-3.24171	661.24847	-1211.70874	-88.24815	479.18881	-1206.19604	-228.06122	343.82257	-1175.66016	-332.62784	140.59406	-1124.24414	-370.25110	138.42981	-1171.60144	-214.82254	31.36566	-869.35211	213.40265	661.38257	-920.56781	266.90741	461.32251	-924.77472	280.17804	273.46341	-962.20404	320.03537	88.15303	-1022.29010	297.65170	36.10321	-952.21893	478.52100	59.65731	-1015.94873	56.19096	1771.05847	-3357.06152	2845.88330	1034.18384			 
